Henrys Crime 2010 NTSC 1080p Eng-Dutch.Subs.AC3. DTS .x264

Verenigde Staten
Komedie
108 minuten

geregisseerd door Malcolm Venville
met Keanu Reeves, Vera Farmiga en Judy Greer

Nadat hij drie jaar in de gevangenis heeft gezeten voor een bankoverval die hij niet gepleegd heeft, besluit de goedwillige doch doelloze Henry om de bank deze keer echt te overvallen. Daarvoor wil hij zich inwerken in een plaatselijk theatergroep, maar z’n plannetje wordt erg ingewikkeld als hij verliefd wordt op de hoofdrolspeelster van het gezelschap.


English

Storyline

Released from prison for a crime he didn't commit, an ex-con targets the same bank he was sent away for robbing.
 


Video
ID : 1
Format : AVC
Format/Info : Advanced Video Codec
Format profile : High@L5.1
Format settings, CABAC : Yes
Format settings, ReFrames : 5 frames
Codec ID : V_MPEG4/ISO/AVC
Duration : 1h 50mn
Bit rate mode : Variable
Bit rate : 8 227 Kbps
Nominal bit rate : 8 644 Kbps
Maximum bit rate : 40.0 Mbps
Width : 1 920 pixels
Height : 800 pixels
Display aspect ratio : 2.40:1
Frame rate : 23.976 fps
Color space : YUV
Chroma subsampling : 4:2:0
Bit depth : 8 bits
Scan type : Progressive
Bits/(Pixel*Frame) : 0.223
Stream size : 6.32 GiB (79%)
Title : Henrys.Crime.2010.NTSC.Blu-Ray.1080p.Eng-Dutch.Subs.x264-BITBURGER
Writing library : x264 core 115 r1995 c1e60b9
Encoding settings : cabac=1 / ref=5 / deblock=1:0:0 / analyse=0x3:0x133 / me=umh / subme=7 / psy=1 / psy_rd=1.00:0.00 / mixed_ref=1 / me_range=16 / chroma_me=1 / trellis=1 / 8x8dct=1 / cqm=0 / deadzone=21,11 / fast_pskip=0 / chroma_qp_offset=-2 / threads=12 / sliced_threads=0 / nr=0 / decimate=1 / interlaced=0 / bluray_compat=0 / constrained_intra=0 / bframes=3 / b_pyramid=2 / b_adapt=1 / b_bias=0 / direct=1 / weightb=1 / open_gop=0 / weightp=2 / keyint=250 / keyint_min=23 / scenecut=40 / intra_refresh=0 / rc_lookahead=40 / rc=2pass / mbtree=1 / bitrate=8644 / ratetol=1.0 / qcomp=0.60 / qpmin=0 / qpmax=69 / qpstep=4 / cplxblur=20.0 / qblur=0.5 / ip_ratio=1.40 / aq=1:1.0
Language : English

Audio #1
ID : 2
Format : AC-3
Format/Info : Audio Coding 3
Mode extension : CM (complete main)
Codec ID : A_AC3
Duration : 1h 50mn
Bit rate mode : Constant
Bit rate : 448 Kbps
Channel(s) : 6 channels
Channel positions : Front: L C R, Side: L R, LFE
Sampling rate : 48.0 KHz
Bit depth : 16 bits
Compression mode : Lossy
Stream size: 353 MiB (4%)
Title : AC3
Language : English

Audio #2
ID : 3
Format : DTS
Format/Info : Digital Theater Systems
Codec ID : A_DTS
Duration : 1h 50mn
Bit rate mode : Constant
Bit rate : 1 510 Kbps
Channel(s) : 6 channels
Channel positions : Front: L C R, Side: L R, LFE
Sampling rate : 48.0 KHz
Bit depth : 24 bits
Compression mode : Lossy
Stream size : 1.16 GiB (15%)
Title : DTS
Language : English

Text #1
ID : 4
Format : UTF-8
Codec ID : S_TEXT/UTF8
Codec ID/Info : UTF-8 Plain Text
Title : eng
Language : English

Text #2
ID : 5
Format : UTF-8
Codec ID : S_TEXT/UTF8
Codec ID/Info : UTF-8 Plain Text
Title : dut
Language : Dutch

Text #3
ID : 6
Format : VobSub
Muxing mode : zlib
Codec ID : S_VOBSUB
Codec ID/Info : The same subtitle format used on DVDs
Title : eng
Language : English

Text #4
ID: 7
Format : VobSub
Muxing mode : zlib
Codec ID : S_VOBSUB
Codec ID/Info : The same subtitle format used on DVDs
Title : dut
Language : Dutch

 
http://www.moviemeter.nl/film/68677 
http://www.imdb.com/title/tt1220888/

TBS
 	